<svg xmlns="http://www.w3.org/2000/svg">
	<style>
		tspan { white-space:pre }
	</style>
    <defs>
        <svg id="EmptyInbox" preserveAspectRatio="xMidYMid meet" x="0" y="0" viewBox="35 0 100 100" width="300" height="125">
			<path id="Background" fill="white" stroke="none" d="M129 82L46 82C42.13 82 39 78.87 39 75C39 71.13 42.13 68 46 68L7 68C3.13 68 0 64.87 0 61C0 57.13 3.13 54 7 54L47 54C50.87 54 54 50.87 54 47C54 43.13 50.87 40 47 40L22 40C18.13 40 15 36.87 15 33C15 29.13 18.13 26 22 26L62 26C58.13 26 55 22.87 55 19C55 15.13 58.13 12 62 12L160 12C163.87 12 167 15.13 167 19C167 22.87 163.87 26 160 26L120 26C123.87 26 127 29.13 127 33C127 36.87 123.87 40 120 40L142 40C145.87 40 149 43.13 149 47C149 50.87 145.87 54 142 54L131.83 54C126.95 54 123 57.13 123 61C123 64.87 129 68 129 68C132.87 68 136 71.13 136 75C136 78.87 132.87 82 129 82ZM160 54C156.13 54 153 50.87 153 47C153 43.13 156.13 40 160 40C163.87 40 167 43.13 167 47C167 50.87 163.87 54 160 54Z" />
			<path id="Background" fill-opacity="0.1" stroke="none" d="M129 82L46 82C42.13 82 39 78.87 39 75C39 71.13 42.13 68 46 68L7 68C3.13 68 0 64.87 0 61C0 57.13 3.13 54 7 54L47 54C50.87 54 54 50.87 54 47C54 43.13 50.87 40 47 40L22 40C18.13 40 15 36.87 15 33C15 29.13 18.13 26 22 26L62 26C58.13 26 55 22.87 55 19C55 15.13 58.13 12 62 12L160 12C163.87 12 167 15.13 167 19C167 22.87 163.87 26 160 26L120 26C123.87 26 127 29.13 127 33C127 36.87 123.87 40 120 40L142 40C145.87 40 149 43.13 149 47C149 50.87 145.87 54 142 54L131.83 54C126.95 54 123 57.13 123 61C123 64.87 129 68 129 68C132.87 68 136 71.13 136 75C136 78.87 132.87 82 129 82ZM160 54C156.13 54 153 50.87 153 47C153 43.13 156.13 40 160 40C163.87 40 167 43.13 167 47C167 50.87 163.87 54 160 54Z" />
			<path id="Path" fill="white" stroke="none" d="M71.12 60.31C71.04 60.86 71 61.43 71 62C71 68.63 76.37 74 83 74C89.63 74 95 68.63 95 62C95 61.43 94.96 60.86 94.88 60.31L124 60.31L124 87C124 88.66 122.66 90 121 90L45 90C43.34 90 42 88.66 42 87L42 60.31L71.12 60.31Z" />
			<path id="Path" fill="white" stroke="none" d="M96 60C96 67.18 90.18 73 83 73C75.82 73 70 67.18 70 60C70 59.77 70.01 59.54 70.02 59.31L42 59.31L51.56 31.04C51.97 29.82 53.12 29 54.4 29L111.6 29C112.88 29 114.03 29.82 114.44 31.04L124 59.31L95.98 59.31C95.99 59.54 96 59.77 96 60Z" />
			<path id="Path" fill="white" stroke="none" d="M94.1 60.95C94.1 66.5 89.13 72 83 72C76.87 72 71.9 66.5 71.9 60.95C71.9 60.77 71.91 59.6 71.92 59.42L51 59.42L59.16 39.58C59.51 38.63 60.49 38 61.59 38L104.41 38C105.51 38 106.49 38.63 106.84 39.58L115 59.42L94.08 59.42C94.09 59.6 94.1 60.77 94.1 60.95Z" />
			<path id="Path" fill-opacity="0.2" stroke="none" d="M94.1 60.95C94.1 66.5 89.13 72 83 72C76.87 72 71.9 66.5 71.9 60.95C71.9 60.77 71.91 59.6 71.92 59.42L51 59.42L59.16 39.58C59.51 38.63 60.49 38 61.59 38L104.41 38C105.51 38 106.49 38.63 106.84 39.58L115 59.42L94.08 59.42C94.09 59.6 94.1 60.77 94.1 60.95Z" />
			<path id="Rectangle" fill="none" d="M55.25 29L110.75 29C112.41 29 114.18 30.27 114.71 31.84L124 59.31L124 59.31L124 86C124 87.66 122.66 89 121 89L45 89C43.34 89 42 87.66 42 86L42 59.31L42 59.31L51.29 31.84C51.82 30.27 53.59 29 55.25 29Z" />
			<path id="Shape" fill-rule="evenodd" fill="none" stroke-linejoin="round" d="M56 59C56 59 61.9 59 68.74 59C70.62 59 70.62 60.32 70.62 61C70.62 67.63 76.12 73 82.9 73C89.68 73 95.17 67.63 95.17 61C95.17 60.32 95.17 59 97.05 59L122 59M48.57 59L51 59L48.57 59Z" />
			<path id="lines" fill="none" stroke-opacity="0.3" stroke-linejoin="round" d="M82.1 2L82.1 18.76M56 6.3L67.1 18.76M108.1 6.3L97 18.76" />
		</svg>
		<svg id="NoSearchResult" preserveAspectRatio="xMidYMid meet" x="0" y="0" viewBox="20 0 100 100" width="260" height="132">
			<path id="Background" fill-opacity="0.1" stroke="none" d="M129 71L46 71C42.13 71 39 67.87 39 64C39 60.13 42.13 57 46 57L7 57C3.13 57 0 53.87 0 50C0 46.13 3.13 43 7 43L47 43C50.87 43 54 39.87 54 36C54 32.13 50.87 29 47 29L22 29C18.13 29 15 25.87 15 22C15 18.13 18.13 15 22 15L62 15C58.13 15 55 11.87 55 8C55 4.13 58.13 1 62 1L160 1C163.87 1 167 4.13 167 8C167 11.87 163.87 15 160 15L120 15C123.87 15 127 18.13 127 22C127 25.87 123.87 29 120 29L142 29C145.87 29 149 32.13 149 36C149 39.87 145.87 43 142 43L131.83 43C126.95 43 123 46.13 123 50C123 53.87 129 57 129 57C132.87 57 136 60.13 136 64C136 67.87 132.87 71 129 71ZM160 43C156.13 43 153 39.87 153 36C153 32.13 156.13 29 160 29C163.87 29 167 32.13 167 36C167 39.87 163.87 43 160 43Z" />
			<g id="Search">
				<path id="Oval" fill="white" d="M73.5 69C92 69 107 54 107 35.5C107 17 92 2 73.5 2C55 2 40 17 40 35.5C40 54 55 69 73.5 69Z" />
				<path id="Oval" fill-opacity="0.1" d="M73.5 69C92 69 107 54 107 35.5C107 17 92 2 73.5 2C55 2 40 17 40 35.5C40 54 55 69 73.5 69Z" />
				<path id="Oval" fill="white" d="M68.13 61.49C70.77 61.98 73.5 62 73.5 62C88.14 62 100 50.14 100 35.5C100 20.86 88.14 9 73.5 9C69.74 9 66.16 9.78 62.92 11.19C57.29 13.65 52.68 18 49.9 23.44C48.04 27.06 47 31.16 47 35.5C47 39.44 47.86 43.18 49.4 46.54C50.5 48.94 51.95 51.15 53.68 53.1" />
				<path id="Oval" fill="none" d="M56.8 56.07C58.95 57.82 61.37 59.24 64 60.25" />
				<path id="Oval" fill="none" stroke="white" stroke-opacity="1" d="M74 17C72.28 17 70.61 17.23 69.02 17.66C60.94 19.85 55 27.23 55 36" />
				<path id="Oval" fill="none" stroke-opacity="0.4" d="M74 17C72.28 17 70.61 17.23 69.02 17.66C60.94 19.85 55 27.23 55 36" />
				<path id="Path 4" fill="none" d="M101 62L107 68" />
				<path id="Rectangle" fill="white" stroke="none" d="M105.15 66.15L105.15 66.15C107.53 63.76 111.38 63.76 113.77 66.15L124.85 77.23C127.24 79.62 127.24 83.47 124.85 85.85L124.85 85.85C122.47 88.24 118.62 88.24 116.23 85.85L105.15 74.77C102.76 72.38 102.76 68.53 105.15 66.15Z" />
				<path id="Rectangle" fill-opacity="0.2" d="M105.15 66.15L105.15 66.15C107.53 63.76 111.38 63.76 113.77 66.15L124.85 77.23C127.24 79.62 127.24 83.47 124.85 85.85L124.85 85.85C122.47 88.24 118.62 88.24 116.23 85.85L105.15 74.77C102.76 72.38 102.76 68.53 105.15 66.15Z" />
				<path id="Line" fill="none" stroke="white" d="M111 69L122 80" />
			</g>
			<path id="Line 8" fill-opacity="0.7" stroke-linejoin="round" d="M133.5 28L116.32 28M140.5 28L138.28 28M127.18 35.78L119 35.78" />
			<path id="Line 8" fill-opacity="0.7" stroke-linejoin="round" d="M32.5 49L15.32 49M9.5 49L5.28 49M37.18 57.78L29 57.78" />
		</svg>
		<svg id="Error" preserveAspectRatio="xMidYMid meet" x="0" y="0" viewBox="60 0 100 100" width="300" height="125">
			<path id="Background" fill-opacity="0.1" stroke="none" d="M46 91C42.13 91 39 87.87 39 84C39 80.13 42.13 77 46 77L7 77C3.13 77 0 73.87 0 70C0 66.13 3.13 63 7 63L47 63C50.87 63 54 59.87 54 56C54 52.13 50.87 49 47 49L22 49C18.13 49 15 45.87 15 42C15 38.13 18.13 35 22 35L62 35C58.13 35 55 31.87 55 28C55 24.13 58.13 21 62 21L119 21C122.87 21 126 24.13 126 28C126 31.87 122.87 35 119 35L183 35C186.87 35 190 38.13 190 42C190 45.87 186.87 49 183 49L205 49C208.87 49 212 52.13 212 56C212 59.87 208.87 63 205 63L186 63C182.13 63 179 66.13 179 70C179 73.87 182.13 77 186 77L192 77C195.87 77 199 80.13 199 84C199 87.87 195.87 91 192 91L46 91ZM209 91C212.87 91 216 87.87 216 84C216 80.13 212.87 77 209 77C205.13 77 202 80.13 202 84C202 87.87 205.13 91 209 91Z" />
			<path id="Shape" fill-rule="evenodd" fill="white" d="M75 97C62.85 97 53 87.37 53 75.5C53 63.63 62.85 54 75 54C75.52 54 76.03 54.02 76.54 54.05C76.18 52.09 76 50.07 76 48C76 29.22 91.22 14 110 14C124.99 14 137.72 23.7 142.24 37.17C143.31 37.06 144.4 37 145.5 37C162.34 37 176 50.43 176 67C176 82.74 163.68 95.73 148 96.98L148 97L91.51 97M87 97L80.03 97" />
			<path id="Oval" fill="none" d="M110.5 83C113.54 83 116 80.54 116 77.5C116 74.46 113.54 72 110.5 72C107.46 72 105 74.46 105 77.5C105 80.54 107.46 83 110.5 83Z" />
			<path id="Line" fill="none" stroke-linejoin="round" d="M95 66L102 60.51L95 55.28" />
			<path id="Line" fill="none" stroke-linejoin="round" d="M126 66L119 60.51L126 55.28" />
			<path id="Oval" fill="none" d="M120 24C126.51 25.72 131.65 30.81 133.44 37.29" />
			<path id="Oval" fill="none" d="M141 7C142.66 7 144 5.66 144 4C144 2.34 142.66 1 141 1C139.34 1 138 2.34 138 4C138 5.66 139.34 7 141 7Z" />
			<path id="Oval" fill="none" d="M172 23C173.66 23 175 21.66 175 20C175 18.34 173.66 17 172 17C170.34 17 169 18.34 169 20C169 21.66 170.34 23 172 23Z" />
			<path id="Line 5" fill="none" d="M157.24 14.76L148.88 23.12M148.76 14.76L157.12 23.12" />
			<path id="Line 4" fill="none" d="M60.4 32.6L54.4 38.6M54.4 32.6L60.4 38.6" />
			<path id="Oval" fill="none" d="M68 26C69.66 26 71 24.66 71 23C71 21.34 69.66 20 68 20C66.34 20 65 21.34 65 23C65 24.66 66.34 26 68 26Z" />
		</svg>
		<svg id="NoDocuments" preserveAspectRatio="xMidYMid meet" x="0" y="0" viewBox="30 0 100 100" width="300"  height="125">
			<path id="Background" fill-opacity="0.1" stroke="none" d="M129 85L46 85C42.13 85 39 81.87 39 78C39 74.13 42.13 71 46 71L7 71C3.13 71 0 67.87 0 64C0 60.13 3.13 57 7 57L47 57C50.87 57 54 53.87 54 50C54 46.13 50.87 43 47 43L22 43C18.13 43 15 39.87 15 36C15 32.13 18.13 29 22 29L62 29C58.13 29 55 25.87 55 22C55 18.13 58.13 15 62 15L160 15C163.87 15 167 18.13 167 22C167 25.87 163.87 29 160 29L120 29C123.87 29 127 32.13 127 36C127 39.87 123.87 43 120 43L142 43C145.87 43 149 46.13 149 50C149 53.87 145.87 57 142 57L131.83 57C126.95 57 123 60.13 123 64C123 67.87 129 71 129 71C132.87 71 136 74.13 136 78C136 81.87 132.87 85 129 85ZM160 57C156.13 57 153 53.87 153 50C153 46.13 156.13 43 160 43C163.87 43 167 46.13 167 50C167 53.87 163.87 57 160 57Z" />
			<path id="Shape" fill-rule="evenodd" fill="white" stroke="none" d="M106.67 14L115.97 81.84L116.81 88.65C117.08 90.84 115.52 92.84 113.33 93.11L54.77 100.3C52.57 100.57 50.58 99.01 50.31 96.81L41.29 23.39C41.16 22.29 41.94 21.29 43.03 21.16C43.04 21.16 43.05 21.16 43.06 21.16L47.91 20.61M51.84 20.17L56.43 19.66" />
			<path id="Rectangle" fill-opacity="0.2" d="M104.14 18.27L112.56 79.75L113.32 85.92C113.56 87.91 112.17 89.71 110.2 89.96L57.76 96.39C55.8 96.64 54.01 95.22 53.76 93.23L45.37 24.87L53.84 23.83" />
			<path id="Rectangle" fill="white" d="M63.67 0L106.88 0C109.1 0 112.15 1.26 113.71 2.83L123.84 12.95C125.41 14.51 126.67 17.57 126.67 19.78L126.67 80C126.67 82.21 124.88 84 122.67 84L63.67 84C61.46 84 59.67 82.21 59.67 80L59.67 4C59.67 1.79 61.46 0 63.67 0Z" />
			<path id="Shape" fill="white" d="M109.67 2.4L109.67 14C109.67 15.66 111.01 17 112.67 17L120.61 17" />
			<path id="lines" fill="none" d="M71.67 17L97.67 17M71.67 29L114.67 29M71.67 42L114.67 42M71.67 55L114.67 55M71.67 68L97.67 68" />
		</svg>
    </defs>
</svg>