<svg xmlns="http://www.w3.org/2000/svg">
	<style>
		tspan { white-space:pre }
		<!-- .shp0 -> fill-opacity="0.1" stroke="none"-->
		<!-- .shp1 -> fill="white" stroke="none" -->
		<!-- .shp2 -> fill="none" -->
		<!-- .shp3 -> fill-opacity="0.2" stroke="none"-->
		<!-- .shp4 -> fill="white" stroke-linecap="none"-->
		<!-- shp5 -> fill="none" stroke-linejoin="round" -->
		<!-- shp6 -> fill="white" -->
		<!-- shp7 -> fill="none" stroke-color="white" stroke-linejoin="round" -->
		<!-- shp8 -> fill="none" stroke-opacity="0.3" stroke-linejoin="round" -->
	</style>
    <defs>
        <g id="NoCreditCard">
			<path id="Background" fill-opacity="0.1" stroke="none" d="M129 80L46 80C42.13 80 39 76.87 39 73C39 69.13 42.13 66 46 66L7 66C3.13 66 0 62.87 0 59C0 55.13 3.13 52 7 52L47 52C50.87 52 54 48.87 54 45C54 41.13 50.87 38 47 38L22 38C18.13 38 15 34.87 15 31C15 27.13 18.13 24 22 24L62 24C58.13 24 55 20.87 55 17C55 13.13 58.13 10 62 10L160 10C163.87 10 167 13.13 167 17C167 20.87 163.87 24 160 24L120 24C123.87 24 127 27.13 127 31C127 34.87 123.87 38 120 38L142 38C145.87 38 149 41.13 149 45C149 48.87 145.87 52 142 52L131.83 52C126.95 52 123 55.13 123 59C123 62.87 129 66 129 66C132.87 66 136 69.13 136 73C136 76.87 132.87 80 129 80ZM160 52C156.13 52 153 48.87 153 45C153 41.13 156.13 38 160 38C163.87 38 167 41.13 167 45C167 48.87 163.87 52 160 52Z" />
			<path id="Rectangle" fill="white" stroke="none" d="M22.96 15.52L105.99 2.22C107.63 1.96 109.16 3.07 109.41 4.71L117.54 56.55C117.79 58.18 116.68 59.72 115.04 59.98L32.01 73.28C30.37 73.54 28.84 72.43 28.59 70.79L20.46 18.95C20.21 17.31 21.32 15.78 22.96 15.52Z" />
			<path id="Shape" fill-rule="evenodd" fill="none" d="M36.34 72.42L33.16 72.95C30.97 73.31 28.92 71.76 28.58 69.48L21.05 20.04C20.7 17.76 22.2 15.63 24.38 15.27L104.56 2.05C106.74 1.69 108.8 3.24 109.14 5.52C109.48 7.74 109.75 9.5 109.95 10.82M110.52 14.58C110.7 15.77 110.86 16.81 111 17.71" />
			<path id="Rectangle" fill="white" stroke="none" d="M26.96 17.79L102.72 5.96C104.36 5.71 105.9 6.82 106.16 8.46L113.52 54.28C113.79 55.92 112.67 57.45 111.04 57.71L35.28 69.54C33.64 69.79 32.1 68.68 31.84 67.04L24.48 21.22C24.21 19.58 25.32 18.05 26.96 17.79Z" />
			<path id="Rectangle" fill-opacity="0.2" stroke="none" d="M26.96 17.79L102.72 5.96C104.36 5.71 105.9 6.82 106.16 8.46L113.52 54.28C113.79 55.92 112.67 57.45 111.04 57.71L35.28 69.54C33.64 69.79 32.1 68.68 31.84 67.04L24.48 21.22C24.21 19.58 25.32 18.05 26.96 17.79Z" />
			<path id="Rectangle" fill="white" stroke-linecap="none" d="M44 21L125 21C127.21 21 129 22.79 129 25L129 76C129 78.21 127.21 80 125 80L44 80C41.79 80 40 78.21 40 76L40 25C40 22.79 41.79 21 44 21Z" />
			<path id="Rectangle" fill="white" stroke="none" d="M42.5 34L126.5 34L126.5 48L42.5 48L42.5 34Z" />
			<path id="Rectangle" fill-opacity="0.2" stroke="none" d="M42.5 34L126.5 34L126.5 48L42.5 48L42.5 34Z" />
			<path id="lines" fill="none" stroke-linejoin="round" d="M127.17 34L61.33 34M121.17 47L42.33 47M78.06 66L49.75 66M56.29 34L49.09 34" />
		</g>
        <svg id="EmptyInbox" preserveAspectRatio="xMidYMid meet" x="0" y="0" viewBox="25 0 100 100" width="280" height="117">
			<path id="Background" fill="white" stroke="none" d="M129 82L46 82C42.13 82 39 78.87 39 75C39 71.13 42.13 68 46 68L7 68C3.13 68 0 64.87 0 61C0 57.13 3.13 54 7 54L47 54C50.87 54 54 50.87 54 47C54 43.13 50.87 40 47 40L22 40C18.13 40 15 36.87 15 33C15 29.13 18.13 26 22 26L62 26C58.13 26 55 22.87 55 19C55 15.13 58.13 12 62 12L160 12C163.87 12 167 15.13 167 19C167 22.87 163.87 26 160 26L120 26C123.87 26 127 29.13 127 33C127 36.87 123.87 40 120 40L142 40C145.87 40 149 43.13 149 47C149 50.87 145.87 54 142 54L131.83 54C126.95 54 123 57.13 123 61C123 64.87 129 68 129 68C132.87 68 136 71.13 136 75C136 78.87 132.87 82 129 82ZM160 54C156.13 54 153 50.87 153 47C153 43.13 156.13 40 160 40C163.87 40 167 43.13 167 47C167 50.87 163.87 54 160 54Z" />
			<path id="Background" fill-opacity="0.1" stroke="none" d="M129 82L46 82C42.13 82 39 78.87 39 75C39 71.13 42.13 68 46 68L7 68C3.13 68 0 64.87 0 61C0 57.13 3.13 54 7 54L47 54C50.87 54 54 50.87 54 47C54 43.13 50.87 40 47 40L22 40C18.13 40 15 36.87 15 33C15 29.13 18.13 26 22 26L62 26C58.13 26 55 22.87 55 19C55 15.13 58.13 12 62 12L160 12C163.87 12 167 15.13 167 19C167 22.87 163.87 26 160 26L120 26C123.87 26 127 29.13 127 33C127 36.87 123.87 40 120 40L142 40C145.87 40 149 43.13 149 47C149 50.87 145.87 54 142 54L131.83 54C126.95 54 123 57.13 123 61C123 64.87 129 68 129 68C132.87 68 136 71.13 136 75C136 78.87 132.87 82 129 82ZM160 54C156.13 54 153 50.87 153 47C153 43.13 156.13 40 160 40C163.87 40 167 43.13 167 47C167 50.87 163.87 54 160 54Z" />
			<path id="Path" fill="white" stroke="none" d="M71.12 60.31C71.04 60.86 71 61.43 71 62C71 68.63 76.37 74 83 74C89.63 74 95 68.63 95 62C95 61.43 94.96 60.86 94.88 60.31L124 60.31L124 87C124 88.66 122.66 90 121 90L45 90C43.34 90 42 88.66 42 87L42 60.31L71.12 60.31Z" />
			<path id="Path" fill="white" stroke="none" d="M96 60C96 67.18 90.18 73 83 73C75.82 73 70 67.18 70 60C70 59.77 70.01 59.54 70.02 59.31L42 59.31L51.56 31.04C51.97 29.82 53.12 29 54.4 29L111.6 29C112.88 29 114.03 29.82 114.44 31.04L124 59.31L95.98 59.31C95.99 59.54 96 59.77 96 60Z" />
			<path id="Path" fill="white" stroke="none" d="M94.1 60.95C94.1 66.5 89.13 72 83 72C76.87 72 71.9 66.5 71.9 60.95C71.9 60.77 71.91 59.6 71.92 59.42L51 59.42L59.16 39.58C59.51 38.63 60.49 38 61.59 38L104.41 38C105.51 38 106.49 38.63 106.84 39.58L115 59.42L94.08 59.42C94.09 59.6 94.1 60.77 94.1 60.95Z" />
			<path id="Path" fill-opacity="0.2" stroke="none" d="M94.1 60.95C94.1 66.5 89.13 72 83 72C76.87 72 71.9 66.5 71.9 60.95C71.9 60.77 71.91 59.6 71.92 59.42L51 59.42L59.16 39.58C59.51 38.63 60.49 38 61.59 38L104.41 38C105.51 38 106.49 38.63 106.84 39.58L115 59.42L94.08 59.42C94.09 59.6 94.1 60.77 94.1 60.95Z" />
			<path id="Rectangle" fill="none" d="M55.25 29L110.75 29C112.41 29 114.18 30.27 114.71 31.84L124 59.31L124 59.31L124 86C124 87.66 122.66 89 121 89L45 89C43.34 89 42 87.66 42 86L42 59.31L42 59.31L51.29 31.84C51.82 30.27 53.59 29 55.25 29Z" />
			<path id="Shape" fill-rule="evenodd" fill="none" stroke-linejoin="round" d="M56 59C56 59 61.9 59 68.74 59C70.62 59 70.62 60.32 70.62 61C70.62 67.63 76.12 73 82.9 73C89.68 73 95.17 67.63 95.17 61C95.17 60.32 95.17 59 97.05 59L122 59M48.57 59L51 59L48.57 59Z" />
			<path id="lines" fill="none" stroke-opacity="0.3" stroke-linejoin="round" d="M82.1 2L82.1 18.76M56 6.3L67.1 18.76M108.1 6.3L97 18.76" />
		</svg>
		<svg id="NoSearchResult" preserveAspectRatio="xMidYMid meet" x="0" y="0" viewBox="20 0 100 100" width="260" height="132">
			<path id="Background" fill-opacity="0.1" stroke="none" d="M129 71L46 71C42.13 71 39 67.87 39 64C39 60.13 42.13 57 46 57L7 57C3.13 57 0 53.87 0 50C0 46.13 3.13 43 7 43L47 43C50.87 43 54 39.87 54 36C54 32.13 50.87 29 47 29L22 29C18.13 29 15 25.87 15 22C15 18.13 18.13 15 22 15L62 15C58.13 15 55 11.87 55 8C55 4.13 58.13 1 62 1L160 1C163.87 1 167 4.13 167 8C167 11.87 163.87 15 160 15L120 15C123.87 15 127 18.13 127 22C127 25.87 123.87 29 120 29L142 29C145.87 29 149 32.13 149 36C149 39.87 145.87 43 142 43L131.83 43C126.95 43 123 46.13 123 50C123 53.87 129 57 129 57C132.87 57 136 60.13 136 64C136 67.87 132.87 71 129 71ZM160 43C156.13 43 153 39.87 153 36C153 32.13 156.13 29 160 29C163.87 29 167 32.13 167 36C167 39.87 163.87 43 160 43Z" />
			<g id="Search">
				<path id="Oval" fill="white" d="M73.5 69C92 69 107 54 107 35.5C107 17 92 2 73.5 2C55 2 40 17 40 35.5C40 54 55 69 73.5 69Z" />
				<path id="Oval" fill-opacity="0.1" d="M73.5 69C92 69 107 54 107 35.5C107 17 92 2 73.5 2C55 2 40 17 40 35.5C40 54 55 69 73.5 69Z" />
				<path id="Oval" fill="white" d="M68.13 61.49C70.77 61.98 73.5 62 73.5 62C88.14 62 100 50.14 100 35.5C100 20.86 88.14 9 73.5 9C69.74 9 66.16 9.78 62.92 11.19C57.29 13.65 52.68 18 49.9 23.44C48.04 27.06 47 31.16 47 35.5C47 39.44 47.86 43.18 49.4 46.54C50.5 48.94 51.95 51.15 53.68 53.1" />
				<path id="Oval" fill="none" d="M56.8 56.07C58.95 57.82 61.37 59.24 64 60.25" />
				<path id="Oval" fill="none" stroke="white" stroke-opacity="1" d="M74 17C72.28 17 70.61 17.23 69.02 17.66C60.94 19.85 55 27.23 55 36" />
				<path id="Oval" fill="none" stroke-opacity="0.4" d="M74 17C72.28 17 70.61 17.23 69.02 17.66C60.94 19.85 55 27.23 55 36" />
				<path id="Path 4" fill="none" d="M101 62L107 68" />
				<path id="Rectangle" fill="white" stroke="none" d="M105.15 66.15L105.15 66.15C107.53 63.76 111.38 63.76 113.77 66.15L124.85 77.23C127.24 79.62 127.24 83.47 124.85 85.85L124.85 85.85C122.47 88.24 118.62 88.24 116.23 85.85L105.15 74.77C102.76 72.38 102.76 68.53 105.15 66.15Z" />
				<path id="Rectangle" fill-opacity="0.2" d="M105.15 66.15L105.15 66.15C107.53 63.76 111.38 63.76 113.77 66.15L124.85 77.23C127.24 79.62 127.24 83.47 124.85 85.85L124.85 85.85C122.47 88.24 118.62 88.24 116.23 85.85L105.15 74.77C102.76 72.38 102.76 68.53 105.15 66.15Z" />
				<path id="Line" fill="none" stroke="white" d="M111 69L122 80" />
			</g>
			<path id="Line 8" fill-opacity="0.7" stroke-linejoin="round" d="M133.5 28L116.32 28M140.5 28L138.28 28M127.18 35.78L119 35.78" />
			<path id="Line 8" fill-opacity="0.7" stroke-linejoin="round" d="M32.5 49L15.32 49M9.5 49L5.28 49M37.18 57.78L29 57.78" />
		</svg>
		<svg id="Error" preserveAspectRatio="xMidYMid meet" x="0" y="0" viewBox="60 0 100 100" width="300" height="125">
			<path id="Background" fill-opacity="0.1" stroke="none" d="M46 91C42.13 91 39 87.87 39 84C39 80.13 42.13 77 46 77L7 77C3.13 77 0 73.87 0 70C0 66.13 3.13 63 7 63L47 63C50.87 63 54 59.87 54 56C54 52.13 50.87 49 47 49L22 49C18.13 49 15 45.87 15 42C15 38.13 18.13 35 22 35L62 35C58.13 35 55 31.87 55 28C55 24.13 58.13 21 62 21L119 21C122.87 21 126 24.13 126 28C126 31.87 122.87 35 119 35L183 35C186.87 35 190 38.13 190 42C190 45.87 186.87 49 183 49L205 49C208.87 49 212 52.13 212 56C212 59.87 208.87 63 205 63L186 63C182.13 63 179 66.13 179 70C179 73.87 182.13 77 186 77L192 77C195.87 77 199 80.13 199 84C199 87.87 195.87 91 192 91L46 91ZM209 91C212.87 91 216 87.87 216 84C216 80.13 212.87 77 209 77C205.13 77 202 80.13 202 84C202 87.87 205.13 91 209 91Z" />
			<path id="Shape" fill-rule="evenodd" fill="white" d="M75 97C62.85 97 53 87.37 53 75.5C53 63.63 62.85 54 75 54C75.52 54 76.03 54.02 76.54 54.05C76.18 52.09 76 50.07 76 48C76 29.22 91.22 14 110 14C124.99 14 137.72 23.7 142.24 37.17C143.31 37.06 144.4 37 145.5 37C162.34 37 176 50.43 176 67C176 82.74 163.68 95.73 148 96.98L148 97L91.51 97M87 97L80.03 97" />
			<path id="Oval" fill="none" d="M110.5 83C113.54 83 116 80.54 116 77.5C116 74.46 113.54 72 110.5 72C107.46 72 105 74.46 105 77.5C105 80.54 107.46 83 110.5 83Z" />
			<path id="Line" fill="none" stroke-linejoin="round" d="M95 66L102 60.51L95 55.28" />
			<path id="Line" fill="none" stroke-linejoin="round" d="M126 66L119 60.51L126 55.28" />
			<path id="Oval" fill="none" d="M120 24C126.51 25.72 131.65 30.81 133.44 37.29" />
			<path id="Oval" fill="none" d="M141 7C142.66 7 144 5.66 144 4C144 2.34 142.66 1 141 1C139.34 1 138 2.34 138 4C138 5.66 139.34 7 141 7Z" />
			<path id="Oval" fill="none" d="M172 23C173.66 23 175 21.66 175 20C175 18.34 173.66 17 172 17C170.34 17 169 18.34 169 20C169 21.66 170.34 23 172 23Z" />
			<path id="Line 5" fill="none" d="M157.24 14.76L148.88 23.12M148.76 14.76L157.12 23.12" />
			<path id="Line 4" fill="none" d="M60.4 32.6L54.4 38.6M54.4 32.6L60.4 38.6" />
			<path id="Oval" fill="none" d="M68 26C69.66 26 71 24.66 71 23C71 21.34 69.66 20 68 20C66.34 20 65 21.34 65 23C65 24.66 66.34 26 68 26Z" />
		</svg>
		<g id="NoConnection">
			<path id="Background" fill-opacity="0.1" stroke="none" d="M46 79C42.13 79 39 75.87 39 72C39 68.13 42.13 65 46 65L7 65C3.13 65 0 61.87 0 58C0 54.13 3.13 51 7 51L47 51C50.87 51 54 47.87 54 44C54 40.13 50.87 37 47 37L22 37C18.13 37 15 33.87 15 30C15 26.13 18.13 23 22 23L62 23C58.13 23 55 19.87 55 16C55 12.13 58.13 9 62 9L119 9C122.87 9 126 12.13 126 16C126 19.87 122.87 23 119 23L183 23C186.87 23 190 26.13 190 30C190 33.87 186.87 37 183 37L205 37C208.87 37 212 40.13 212 44C212 47.87 208.87 51 205 51L186 51C182.13 51 179 54.13 179 58C179 61.87 182.13 65 186 65L192 65C195.87 65 199 68.13 199 72C199 75.87 195.87 79 192 79L46 79ZM209 79C212.87 79 216 75.87 216 72C216 68.13 212.87 65 209 65C205.13 65 202 68.13 202 72C202 75.87 205.13 79 209 79Z" />
			<path id="Shape" fill-rule="evenodd" fill="white" stroke="none" d="M75 85C62.85 85 53 75.37 53 63.5C53 51.63 62.85 42 75 42C75.52 42 76.03 42.02 76.54 42.05C76.18 40.09 76 38.07 76 36C76 17.22 91.22 2 110 2C124.99 2 137.72 11.7 142.24 25.17C143.31 25.06 144.4 25 145.5 25C162.34 25 176 38.43 176 55C176 70.74 163.68 83.73 148 84.98L148 85L91.51 85M87 85L80.03 85" />
			<path id="Oval" fill="none" d="M120 14C126.51 15.72 131.65 20.81 133.44 27.29" />
			<path id="Oval" fill="white" stroke="none" d="M91 46C91 49.87 94.13 53 98 53C101.87 53 105 49.87 105 46" />
			<path id="Oval" fill-opacity="0.2" stroke="none" d="M91 46C91 49.87 94.13 53 98 53C101.87 53 105 49.87 105 46" />
			<path id="Oval" fill="white" stroke="none" d="M120 46C120 49.87 123.13 53 127 53C130.87 53 134 49.87 134 46" />
			<path id="Oval" fill-opacity="0.2" stroke="none" d="M120 46C120 49.87 123.13 53 127 53C130.87 53 134 49.87 134 46" />
			<path id="Line" fill="white" stroke="none" d="M105 65L119.5 65" />
			<path id="Line" fill-opacity="0.2" stroke="none" d="M105 65L119.5 65" />
			<path id="Zz" fill="white" stroke-linecap="none" d="M40.21 5.29L52.16 5.29L52.16 7.38L43 18.62L52.38 18.62L52.38 21L39.51 21L39.51 18.76L48.66 7.67L40.21 7.67L40.21 5.29ZM56.88 20.58L65.57 20.58L65.57 22.1L58.91 30.27L65.73 30.27L65.73 32L56.37 32L56.37 30.37L63.02 22.3L56.88 22.3L56.88 20.58Z" />
		</g>
		<svg id="NoDocuments" preserveAspectRatio="xMidYMid meet" x="0" y="0" viewBox="0 0 100 100" width="250"  height="102">
			<path id="Background" fill-opacity="0.1" stroke="none" d="M129 85L46 85C42.13 85 39 81.87 39 78C39 74.13 42.13 71 46 71L7 71C3.13 71 0 67.87 0 64C0 60.13 3.13 57 7 57L47 57C50.87 57 54 53.87 54 50C54 46.13 50.87 43 47 43L22 43C18.13 43 15 39.87 15 36C15 32.13 18.13 29 22 29L62 29C58.13 29 55 25.87 55 22C55 18.13 58.13 15 62 15L160 15C163.87 15 167 18.13 167 22C167 25.87 163.87 29 160 29L120 29C123.87 29 127 32.13 127 36C127 39.87 123.87 43 120 43L142 43C145.87 43 149 46.13 149 50C149 53.87 145.87 57 142 57L131.83 57C126.95 57 123 60.13 123 64C123 67.87 129 71 129 71C132.87 71 136 74.13 136 78C136 81.87 132.87 85 129 85ZM160 57C156.13 57 153 53.87 153 50C153 46.13 156.13 43 160 43C163.87 43 167 46.13 167 50C167 53.87 163.87 57 160 57Z" />
			<path id="Shape" fill-rule="evenodd" fill="white" stroke="none" d="M106.67 14L115.97 81.84L116.81 88.65C117.08 90.84 115.52 92.84 113.33 93.11L54.77 100.3C52.57 100.57 50.58 99.01 50.31 96.81L41.29 23.39C41.16 22.29 41.94 21.29 43.03 21.16C43.04 21.16 43.05 21.16 43.06 21.16L47.91 20.61M51.84 20.17L56.43 19.66" />
			<path id="Rectangle" fill-opacity="0.2" d="M104.14 18.27L112.56 79.75L113.32 85.92C113.56 87.91 112.17 89.71 110.2 89.96L57.76 96.39C55.8 96.64 54.01 95.22 53.76 93.23L45.37 24.87L53.84 23.83" />
			<path id="Rectangle" fill="white" d="M63.67 0L106.88 0C109.1 0 112.15 1.26 113.71 2.83L123.84 12.95C125.41 14.51 126.67 17.57 126.67 19.78L126.67 80C126.67 82.21 124.88 84 122.67 84L63.67 84C61.46 84 59.67 82.21 59.67 80L59.67 4C59.67 1.79 61.46 0 63.67 0Z" />
			<path id="Shape" fill="white" d="M109.67 2.4L109.67 14C109.67 15.66 111.01 17 112.67 17L120.61 17" />
			<path id="lines" fill="none" d="M71.67 17L97.67 17M71.67 29L114.67 29M71.67 42L114.67 42M71.67 55L114.67 55M71.67 68L97.67 68" />
		</svg>
        <g id="ShapeTwitter"> 
            <path id="shape-twitter-path" d="M100.001,17.942c-3.681,1.688-7.633,2.826-11.783,3.339
                c4.236-2.624,7.49-6.779,9.021-11.73c-3.965,2.432-8.354,4.193-13.026,5.146C80.47,10.575,75.138,8,69.234,8
                c-11.33,0-20.518,9.494-20.518,21.205c0,1.662,0.183,3.281,0.533,4.833c-17.052-0.884-32.168-9.326-42.288-22.155
                c-1.767,3.133-2.778,6.773-2.778,10.659c0,7.357,3.622,13.849,9.127,17.65c-3.363-0.109-6.525-1.064-9.293-2.651
                c-0.002,0.089-0.002,0.178-0.002,0.268c0,10.272,7.072,18.845,16.458,20.793c-1.721,0.484-3.534,0.744-5.405,0.744
                c-1.322,0-2.606-0.134-3.859-0.379c2.609,8.424,10.187,14.555,19.166,14.726c-7.021,5.688-15.867,9.077-25.48,9.077
                c-1.656,0-3.289-0.102-4.895-0.297C9.08,88.491,19.865,92,31.449,92c37.737,0,58.374-32.312,58.374-60.336
                c0-0.92-0.02-1.834-0.059-2.743C93.771,25.929,97.251,22.195,100.001,17.942L100.001,17.942z">
            </path>
        </g>
    </defs>
</svg>